<svg width="24" height="24" viewBox="0 0 24 24" fill="none" xmlns="http://www.w3.org/2000/svg">
<path d="M17 12C13.687 12 11 14.687 11 18C11 21.313 13.687 24 17 24C20.313 24 23 21.313 23 18C23 14.687 20.313 12 17 12ZM17.5 20.474V21H17V20.501C16.482 20.492 15.947 20.369 15.5 20.138L15.728 19.316C16.206 19.502 16.842 19.699 17.34 19.586C17.914 19.456 18.032 18.865 17.397 18.581C16.932 18.364 15.508 18.179 15.508 16.959C15.508 16.278 16.028 15.667 17 15.534V15H17.5V15.509C17.862 15.519 18.268 15.582 18.721 15.719L18.54 16.543C18.156 16.408 17.732 16.286 17.318 16.311C16.574 16.354 16.508 16.999 17.028 17.269C17.884 17.671 19 17.969 19 19.042C19.001 19.9 18.328 20.357 17.5 20.474ZM19.124 10.295C20.256 10.072 21.286 9.669 22 9.098V9.75C22 10.249 21.614 10.705 20.993 11.078C20.412 10.741 19.785 10.478 19.124 10.295ZM17 4.5C19.673 4.5 22 3.493 22 2.25C22 1.007 19.673 0 17 0C14.328 0 12 1.007 12 2.25C12 3.493 14.328 4.5 17 4.5ZM17.093 2.491C16.794 2.401 15.879 2.325 15.879 1.816C15.879 1.532 16.213 1.279 16.837 1.223V1H17.158V1.211C17.392 1.216 17.652 1.241 17.942 1.301L17.826 1.643C17.605 1.592 17.359 1.544 17.118 1.544L17.046 1.545C16.564 1.565 16.525 1.832 16.858 1.944C17.405 2.113 18.125 2.236 18.125 2.684C18.125 3.041 17.691 3.232 17.158 3.28V3.5H16.837V3.292C16.509 3.289 16.161 3.236 15.875 3.14L16.022 2.797C16.266 2.86 16.574 2.923 16.85 2.923L17.058 2.909C17.427 2.856 17.501 2.609 17.093 2.491ZM6 15.5C7.445 15.5 8.775 15.199 9.705 14.732C10.016 14.042 10.419 13.403 10.903 12.833C10.452 11.79 8.364 11 6 11C3.328 11 1 12.007 1 13.25C1 14.493 3.328 15.5 6 15.5ZM6.093 13.491C5.794 13.401 4.879 13.325 4.879 12.816C4.879 12.532 5.214 12.279 5.837 12.223V12H6.158V12.211C6.392 12.216 6.652 12.241 6.942 12.301L6.825 12.643C6.605 12.592 6.359 12.544 6.118 12.544L6.046 12.545C5.564 12.565 5.526 12.832 5.858 12.944C6.405 13.113 7.125 13.236 7.125 13.684C7.125 14.041 6.691 14.232 6.158 14.28V14.5H5.837V14.292C5.508 14.289 5.161 14.236 4.875 14.14L5.022 13.797C5.266 13.86 5.574 13.923 5.85 13.923L6.058 13.909C6.426 13.856 6.501 13.609 6.093 13.491ZM10.096 22.022C9.177 22.612 7.656 23 6 23C3.328 23 1 21.993 1 20.75V20.098C2.146 21.016 4.109 21.5 6 21.5C7.236 21.5 8.499 21.289 9.549 20.889C9.702 21.283 9.885 21.662 10.096 22.022ZM1 18.25V17.599C2.146 18.516 4.109 19 6 19C7.039 19 8.094 18.849 9.028 18.565C9.061 19.034 9.135 19.491 9.246 19.935C8.358 20.282 7.222 20.5 6 20.5C3.328 20.5 1 19.493 1 18.25ZM1 15.75V15.098C2.146 16.016 4.109 16.5 6 16.5C7.127 16.5 8.275 16.324 9.266 15.991C9.138 16.484 9.056 16.993 9.025 17.517C8.171 17.815 7.122 18 6 18C3.328 18 1 16.993 1 15.75ZM12 4.75V4.098C13.146 5.016 15.109 5.5 17 5.5C18.892 5.5 20.854 5.016 22 4.098V4.75C22 5.993 19.673 7 17 7C14.328 7 12 5.993 12 4.75ZM12 9.75V9.098C12.713 9.669 13.744 10.072 14.876 10.295C14.215 10.478 13.589 10.741 13.008 11.078C12.386 10.705 12 10.249 12 9.75ZM12 7.25V6.599C13.146 7.516 15.109 8 17 8C18.892 8 20.854 7.516 22 6.599V7.25C22 8.493 19.673 9.5 17 9.5C14.328 9.5 12 8.493 12 7.25Z" fill="#EBCF40"/>
</svg>
